<svg xmlns="http://www.w3.org/2000/svg" viewBox="0 0 283 283"><defs><style>.cls-1{fill:#fff;}.cls-2{fill:#f8af48;}.cls-3{fill:#f8ae48;}.cls-4{fill:#f8af4a;}.cls-5{fill:#f8b04b;}.cls-6{fill:#f9bb65;}.cls-7{fill:#f9be6c;}.cls-8{fill:#f9c070;}.cls-9{fill:#f9bd68;}</style></defs><title>gandhi-profile</title><g id="Layer_2" data-name="Layer 2"><g id="Layer_1-2" data-name="Layer 1"><rect class="cls-1" width="283" height="283"/><g id="Layer_2-2" data-name="Layer 2"><g id="Layer_1-2-2" data-name="Layer 1-2"><path class="cls-2" d="M172.92,127.45c0-5.36.1-10.37,0-15.35-.11-2,.7-2.38,2.44-2.48,2.1-.13,1.79,1.17,1.79,2.41q0,21,.05,42c0,2.06-.68,2.79-2.63,3.17a56.08,56.08,0,0,1-12,1c-7-.19-11.66-4.19-12.64-11.14a24.78,24.78,0,0,1,.33-9.35c2.4-9.86,11.94-14.71,21.24-10.77Zm.08,14.87v-5.9c0-6.91-.46-7.34-7.59-7a13.47,13.47,0,0,0-2.9.42c-6,1.66-9.31,7.39-8.49,14.85.76,7,3.94,9.78,10.92,9.71,1.88,0,3.76-.15,5.63-.15s2.56-.6,2.47-2.56c-.15-3.11,0-6.25,0-9.38Z"/><path class="cls-3" d="M81.36,147a53.85,53.85,0,0,0,0,5.65c.24,2.3-.64,3.41-2.85,4-5.62,1.42-11.25,2.15-17,.93-4.64-1-8.17-3.76-9.73-8.09C48,138.8,48.09,128.27,55.53,119c6-7.46,16.94-7.46,23.36-4.27,1,.48,2.56.77,1.64,2.7s-1.84.95-3,.48c-10.66-4.38-19.94.29-22.65,11.51a32,32,0,0,0,.1,15.94c1.54,5.81,5.6,9.2,11.56,9.36a48,48,0,0,0,9-.87c1.64-.27,2-1,2-2.52,0-3.77.12-7.53.07-11.3,0-1.52.48-2,2-2s1.76.72,1.73,2C81.36,142.34,81.36,144.68,81.36,147Z"/><path class="cls-3" d="M188.67,129.4c4.1-2.82,8-3.94,12.29-3.58,5.09.47,8,3.51,8,8.61v20.94c0,1.57-.2,2.39-2.11,2.37s-1.89-1-1.89-2.33V136.62c0-5-2-7.09-7.05-7.11a15.32,15.32,0,0,0-2.64.18c-6.22,1.05-6.68,1.62-6.68,7.88,0,6-.07,12,0,18,0,1.82-.63,2.16-2.3,2.2-1.83,0-2-.83-2-2.26,0-14.39.06-28.79,0-43.18,0-2.07,1-2.21,2.52-2.32,1.89-.13,1.68,1,1.68,2.2C188.67,117.71,188.67,123.25,188.67,129.4Z"/><path class="cls-2" d="M112,145.11v10.76c0,.78.48,2.12-.91,2.08-1.11,0-2.85,1.09-3.29-1.07-.32-1.56-1.23-.82-2-.64-3.64.91-7.19,2.23-11,1.89-4.14-.37-6.55-2.3-7.15-6-.64-3.93.9-6.67,4.85-8.17s8.38-1.79,12.66-2.08c2-.13,2.66-.71,2.79-2.86.6-9.68-4.11-10.41-11.51-9.23a21.58,21.58,0,0,0-5.65,1.83c-1,.43-1.65.56-2-.73-.24-.86-.82-1.62.43-2.21,5.22-2.43,10.58-4,16.36-2.51,4.25,1.14,6.39,4,6.39,8.4C112,138.1,112,141.62,112,145.11Zm-5,3.51v-3.2c0-.84-.25-1.48-1.21-1.28-4.28.77-8.72.92-12.79,2.76a4,4,0,0,0-2.37,4.4c.17,2.07,1.45,3.1,3.33,3.7,2.51.79,5,.16,7.44-.12,5.25-.64,5.64-1.1,5.63-6.27Z"/><path class="cls-3" d="M122.31,129.18c3.62-2.55,7.3-3.82,11.52-3.38,5.16.51,8.16,3.54,8.18,8.68v21.18c0,1.6-.25,2.38-2.14,2.36s-1.86-1-1.86-2.33V136.36c0-4.75-2.07-6.82-6.88-6.91a15,15,0,0,0-2.94.18c-5.66,1-6.18,1.67-6.18,7.38v18.76c0,1.49-.2,2.26-2,2.23s-2.3-.47-2.29-2.25c.08-9.1.1-18.2,0-27.29,0-2.08.56-2.7,2.64-2.81,2.63-.15,1.27,1.68,1.67,2.66A2.38,2.38,0,0,1,122.31,129.18Z"/><path class="cls-4" d="M217,141.62c0-4.66.08-9.32,0-14-.05-1.87.93-1.92,2.3-2,1.59-.13,2,.5,2,2,0,9.5-.07,19,0,28.49,0,1.85-.82,2-2.28,2s-2.06-.37-2-1.92C217.09,151.3,217,146.46,217,141.62Z"/><path class="cls-5" d="M221.95,113.94c-.08,2.12-1.13,3.07-2.88,3.12-1.93,0-2.71-1.16-2.71-2.94s.88-2.92,2.76-2.87a2.67,2.67,0,0,1,2.83,2.51Q221.95,113.84,221.95,113.94Z"/><path class="cls-3" d="M181.33,163.28c-1.21,1.09-3.52-.36-3.45,2.33s2.22,1,3.14,1.87c-.88.91-3.2-.54-3.15,2.1.06,3.06,2.78,1,3.7,2.17a1.52,1.52,0,0,1-.47.22c-4.1.36-4.1.35-4.1-3.72v-1.86C177,162.52,177,162.52,181.33,163.28Z"/><path class="cls-6" d="M206.12,168.92c-.39-.17-.79-.37-1.19-.53-1.46-.58-2.22-1.6-1.59-3.13a2.56,2.56,0,0,1,3.19-1.7h0c1.75.46,2.21,1.76,1.81,3.33-.6,2.39-2.26,3.88-4.85,5.17C204.23,170.49,205.74,170.22,206.12,168.92Zm-.55-4.48a1.38,1.38,0,0,0-1.36,1.59c0,1.23.8,1.66,1.92,1.69s1.28-.73,1.28-1.59C207.46,165.07,207,164.42,205.57,164.44Z"/><path class="cls-6" d="M215.93,172.27c.84-1.75,2.24-2,2.63-3.2-.31-.64-1-.54-1.53-.84a2.19,2.19,0,0,1-1.25-2.83l0-.06a2.69,2.69,0,0,1,3.2-1.81,2.31,2.31,0,0,1,2,2.56v.16C220.66,169.07,218.75,170.62,215.93,172.27Zm3.87-6c.08-1.07-.26-1.8-1.43-1.82-1,0-1.75.38-1.76,1.51s.7,1.71,1.85,1.77,1.36-.59,1.34-1.46Z"/><path class="cls-7" d="M182.36,171.77c1-.94,1.48-.33,2-.5s1.34-.14,1.37-1c0-.64-.57-.82-1.06-1-1.12-.51-2.61-.9-1.92-2.56s2.14-1,3.43-1.1c0,1.24-.76.71-1.16.84s-1.15.13-1.23.8.51.84,1,1.08c1.08.53,2.69.89,1.87,2.56S184.24,172.12,182.36,171.77Z"/><path class="cls-8" d="M210.6,171.73c.64-1.59,1.28-3.2,2-4.76s1-2.93-1.53-2.6a1.21,1.21,0,0,1-1.34-.64c1.28-.64,2.56-.27,3.75-.33.81,0,1.21.52.95,1.21-.95,2.49-2,5-3,7.42Z"/><path class="cls-9" d="M190.68,171.9c-2,.28-2.47-.64-2.64-1.92s.18-2.49-.31-3.71a1.34,1.34,0,0,1,.64-1.59c.72-.41.84.64,1.35.93,1.34.77-.25.6-.42.9C188.63,167.73,189.21,170.54,190.68,171.9Z"/><path class="cls-4" d="M200,171.68v-5.56c.27-.59.44-1.24-.27-1.66-.33-.19-1.15.45-.94-.48.05-.23.77-.36,1.2-.45.7-.13,1,.31,1,.93v7.16Z"/></g></g></g></g></svg>